<svg version="1.1" xmlns="http://www.w3.org/2000/svg" xmlns:xlink="http://www.w3.org/1999/xlink" width="800px" height="800px" viewBox="0,0,256,256"><g fill="#6ad4dd" fill-rule="nonzero" stroke="none" stroke-width="1" stroke-linecap="butt" stroke-linejoin="miter" stroke-miterlimit="10" stroke-dasharray="" stroke-dashoffset="0" font-family="none" font-weight="none" font-size="none" text-anchor="none" style="mix-blend-mode: normal"><g transform="scale(0.77576,0.77576)"><g id="XMLID_509_"><path d="M65,330h200c8.284,0 15,-6.716 15,-15v-170c0,-8.284 -6.716,-15 -15,-15h-15v-45c0,-46.869 -38.131,-85 -85,-85c-46.869,0 -85,38.131 -85,85v45h-15c-8.284,0 -15,6.716 -15,15v170c0,8.284 6.716,15 15,15zM180,234.986v20.014c0,8.284 -6.716,15 -15,15c-8.284,0 -15,-6.716 -15,-15v-20.014c-6.068,-4.565 -10,-11.824 -10,-19.986c0,-13.785 11.215,-25 25,-25c13.785,0 25,11.215 25,25c0,8.162 -3.932,15.421 -10,19.986zM110,85c0,-30.327 24.673,-55 55,-55c30.327,0 55,24.673 55,55v45h-110z" id="XMLID_510_"></path></g></g></g></svg>